<svg version="1.1" xmlns="http://www.w3.org/2000/svg" width="262" height="192" viewBox='120 0 20 192'>
<path d="M0 0 C0.73729843 -0.00671722 1.47459686 -0.01343445 2.23423767 -0.02035522 C4.66371466 -0.03930036 7.09291474 -0.04325798 9.52246094 -0.04541016 C11.22011425 -0.05184177 12.91776646 -0.0585704 14.61541748 -0.06558228 C18.17283699 -0.07754723 21.73015945 -0.08126403 25.28759766 -0.08007812 C29.82800884 -0.07987527 34.36779177 -0.107146 38.90805435 -0.14162254 C42.4152711 -0.16395316 45.9223383 -0.16791375 49.42961884 -0.16685867 C51.10243641 -0.16920657 52.77525863 -0.17798405 54.44800568 -0.19352341 C72.93140166 -0.3491187 72.93140166 -0.3491187 80.25616455 5.74624634 C88.52741744 14.23938059 87.95811136 25.9535342 87.90527344 37.04443359 C87.9072994 38.55557902 87.91021516 40.06672348 87.91397095 41.5778656 C87.91836844 44.72884526 87.91204625 47.87956802 87.89794922 51.03051758 C87.88084385 55.04722535 87.89072312 59.06333216 87.90866661 63.08001804 C87.91956202 66.19521019 87.91603215 69.3102623 87.90828323 72.42545891 C87.90629786 73.90567028 87.9086813 75.38589482 87.91572189 76.86609077 C87.95781861 88.1985571 87.37211097 97.12358873 79.33886719 105.63037109 C73.5523254 110.87403903 67.14457227 111.40923872 59.65625 111.45166016 C58.98722656 111.45662506 58.31820312 111.46158997 57.62890625 111.46670532 C55.42674713 111.48124842 53.22466009 111.48811633 51.02246094 111.49365234 C50.26600029 111.49647972 49.50953964 111.4993071 48.73015594 111.50222015 C44.7256994 111.51718236 40.72127859 111.5264301 36.71679688 111.53076172 C32.60023833 111.53623694 28.48401211 111.56025321 24.36755753 111.58873367 C21.18462193 111.60744827 18.00176493 111.61257036 14.81877899 111.6140976 C13.3022658 111.6171056 11.78575337 111.62507082 10.26929474 111.63828278 C-0.48671281 111.72529299 -9.37579544 111.40358404 -17.88769531 104.27880859 C-24.69223014 95.85178128 -24.1142204 87.08734503 -24.09472656 76.79833984 C-24.10251298 75.08494659 -24.11118487 73.37155715 -24.12069702 71.65817261 C-24.13557413 68.07569844 -24.13507413 64.49361862 -24.12451172 60.91113281 C-24.11293067 56.34250955 -24.14678176 51.77551023 -24.19320107 47.20715523 C-24.22280839 43.67067181 -24.22440147 40.13457355 -24.21818161 36.59798813 C-24.21920152 34.91482199 -24.2295538 33.23163241 -24.24980545 31.5485878 C-24.35186149 21.88152006 -24.06831727 14.02117192 -17.49316406 6.29052734 C-12.23386012 1.1594991 -7.18616224 -0.00946856 0 0 Z " fill="#FAD934" transform="translate(97.4931640625,39.70947265625)"/>
<path d="M0 0 C1.22500214 0.00374634 2.45000427 0.00749268 3.71212769 0.01135254 C6.29598922 0.02477316 8.87981081 0.05256222 11.46337891 0.09375 C15.42258376 0.15613806 19.38019571 0.17570217 23.33984375 0.1875 C25.85158196 0.20583809 28.36330395 0.22658902 30.875 0.25 C32.06046417 0.25849976 33.24592834 0.26699951 34.46731567 0.27575684 C35.56880951 0.29497192 36.67030334 0.31418701 37.80517578 0.33398438 C38.77303009 0.34764038 39.7408844 0.36129639 40.73806763 0.37536621 C43.40823443 0.66758189 45.05430375 1.20966891 47.3046875 2.65625 C48.58749457 5.22186413 48.50319657 7.16042343 48.59277344 10.03295898 C48.64591705 11.7212809 48.64591705 11.7212809 48.70013428 13.44371033 C48.80798038 17.94128861 48.8966354 22.4388727 48.95675278 26.93736172 C49.00276678 30.3453101 49.06974917 33.7497816 49.18945312 37.15600586 C50.05013256 62.23726946 50.05013256 62.23726946 44.41363525 68.60670471 C38.88117726 73.65625 38.88117726 73.65625 35.3046875 73.65625 C34.9746875 57.81625 34.6446875 41.97625 34.3046875 25.65625 C25.22461303 35.17037908 25.22461303 35.17037908 16.20776367 44.74414062 C7.14948583 54.16508005 7.14948583 54.16508005 1.90087891 55.5625 C-0.80485224 55.5625 -3.09107903 55.36529153 -5.6953125 54.65625 C-6.71730714 46.26508341 -6.71730714 46.26508341 -4.08984375 42.12890625 C-0.61521537 38.2109857 3.12856361 34.81655997 7.3046875 31.65625 C8.99402672 30.0125686 10.65728674 28.3419624 12.3046875 26.65625 C12.97242188 25.99882813 13.64015625 25.34140625 14.328125 24.6640625 C15.04226562 23.96023437 15.75640625 23.25640625 16.4921875 22.53125 C17.50345703 21.53738281 17.50345703 21.53738281 18.53515625 20.5234375 C20.48022108 18.57681683 20.48022108 18.57681683 22.3046875 15.65625 C22.9646875 15.65625 23.6246875 15.65625 24.3046875 15.65625 C24.3046875 14.99625 24.3046875 14.33625 24.3046875 13.65625 C8.1346875 13.65625 -8.0353125 13.65625 -24.6953125 13.65625 C-22.7153125 11.34625 -20.7353125 9.03625 -18.6953125 6.65625 C-17.84340332 5.53541016 -16.99149414 4.41457031 -16.11376953 3.25976562 C-11.70853968 -1.02532645 -5.75974745 -0.12038855 0 0 Z " fill="#181C35" transform="translate(115.6953125,59.34375)"/>
<path d="M0 0 C0.79596365 2.69138789 1.04361747 3.83346058 0.3125 6.625 C-1.19008097 9.34395604 -2.20595343 9.82830305 -5 11 C-5.33 11.66 -5.66 12.32 -6 13 C-6.66 13 -7.32 13 -8 13 C-9.62514468 14.45833358 -9.62514468 14.45833358 -11 16 C-11.66 15.67 -12.32 15.34 -13 15 C-13.20753906 15.78761719 -13.41507813 16.57523438 -13.62890625 17.38671875 C-15 20 -15 20 -17.71484375 21.14453125 C-18.77832031 21.36496094 -19.84179688 21.58539063 -20.9375 21.8125 C-21.99839844 22.04582031 -23.05929688 22.27914062 -24.15234375 22.51953125 C-27 23 -27 23 -30 23 C-29.98839844 23.92683594 -29.97679688 24.85367188 -29.96484375 25.80859375 C-29.95582031 27.00613281 -29.94679688 28.20367187 -29.9375 29.4375 C-29.92589844 30.63246094 -29.91429688 31.82742187 -29.90234375 33.05859375 C-30 36 -30 36 -31 37 C-33.33160055 37.09909302 -35.66629942 37.12970504 -38 37.125 C-39.27875 37.12757813 -40.5575 37.13015625 -41.875 37.1328125 C-45 37 -45 37 -46 36 C-46.09942806 33.87691847 -46.12969184 31.75040328 -46.125 29.625 C-46.12757812 28.46226563 -46.13015625 27.29953125 -46.1328125 26.1015625 C-46 23 -46 23 -45 20 C-40.05 20 -35.1 20 -30 20 C-30 19.01 -30 18.02 -30 17 C-30.99 17.33 -31.98 17.66 -33 18 C-32.21824485 13.15311808 -30.60155722 8.6233633 -29 4 C-28.01 4.33 -27.02 4.66 -26 5 C-26 4.01 -26 3.02 -26 2 C-25.01 2 -24.02 2 -23 2 C-23.97227005 4.16891011 -24.7096918 5.7511644 -26.53125 7.3125 C-28.50346381 9.57844778 -28.49498773 11.22281102 -28.6875 14.1875 C-28.79166667 15.79166667 -28.89583333 17.39583333 -29 19 C-23.9513285 19.24404995 -19.6740264 19.14173955 -15.40478516 16.22998047 C-12.91253464 13.89384182 -10.59954832 11.47460407 -8.3125 8.9375 C-7.50361328 8.08349609 -6.69472656 7.22949219 -5.86132812 6.34960938 C-3.88280274 4.25401148 -1.93147239 2.1388831 0 0 Z " fill="#E8CC4D" transform="translate(139,95)"/>
<path d="M0 0 C10.05859375 -0.09765625 10.05859375 -0.09765625 13 0 C14 1 14 1 14.09765625 3.72265625 C14.04882812 8.36132812 14.04882812 8.36132812 14 13 C9.38 13 4.76 13 0 13 C0 8.71 0 4.42 0 0 Z " fill="#1E1E2D" transform="translate(94,117)"/>
<path d="M0 0 C3.00917116 2.18848812 3.76945117 4.79918296 4.59411621 8.32516479 C5.51126829 14.36933493 5.28477942 20.52836407 5.265625 26.62890625 C5.26697459 28.14770062 5.26891757 29.66649457 5.27142334 31.18528748 C5.27435989 34.35655868 5.27012393 37.52771665 5.26074219 40.69897461 C5.2493387 44.74945095 5.25592205 48.79966244 5.26788712 52.85012913 C5.27513723 55.98237581 5.27280352 59.11456038 5.26763153 62.24680901 C5.26630425 63.73983734 5.26791021 65.23287144 5.27259064 66.72589302 C5.27770913 68.81684294 5.26987235 70.90737217 5.25878906 72.99829102 C5.25719788 74.18439468 5.25560669 75.37049835 5.25396729 76.59254456 C4.97313292 80.36047315 4.15215297 83.4136478 3 87 C2.34 85.68 1.68 84.36 1 83 C1.495 82.505 1.495 82.505 2 82 C2.09443335 79.69946165 2.11742128 77.39597827 2.11352539 75.09350586 C2.11367142 74.37159561 2.11381744 73.64968536 2.1139679 72.90589905 C2.11326869 70.50885053 2.10547595 68.11187877 2.09765625 65.71484375 C2.0957921 64.05717511 2.09436818 62.39950593 2.09336853 60.74183655 C2.08954312 56.37045786 2.07971265 51.99911219 2.06866455 47.62774658 C2.05845092 43.17045539 2.05387101 38.71315889 2.04882812 34.25585938 C2.0380904 25.50389107 2.02101371 16.75194964 2 8 C1.67 8 1.34 8 1 8 C0.67 5.36 0.34 2.72 0 0 Z " fill="#EACF51" transform="translate(180,50)"/>
<path d="M0 0 C0.3421907 0.48608231 0.68438141 0.97216461 1.03694153 1.47297668 C3.9451903 3.73524434 6.87186649 3.43953021 10.40893555 3.43237305 C11.16039856 3.4425647 11.91186157 3.45275635 12.68609619 3.46325684 C15.16971227 3.49344888 17.65294307 3.502662 20.13671875 3.51171875 C21.85880318 3.52856088 23.58087529 3.54671049 25.30293274 3.56611633 C29.83533882 3.61367326 34.36769494 3.64344568 38.90026855 3.66955566 C43.52540967 3.69933255 48.15037848 3.7458727 52.77539062 3.79101562 C61.85017039 3.87711343 70.92498556 3.94442983 80 4 C80 4.33 80 4.66 80 5 C75.99940091 5.94602471 72.25573805 6.13787044 68.14941406 6.16113281 C67.48039062 6.16609772 66.81136719 6.17106262 66.12207031 6.17617798 C63.9199112 6.19072107 61.71782415 6.19758899 59.515625 6.203125 C58.75916435 6.20595238 58.0027037 6.20877975 57.22332001 6.21169281 C53.21886346 6.22665502 49.21444266 6.23590275 45.20996094 6.24023438 C41.0934024 6.2457096 36.97717618 6.26972587 32.86072159 6.29820633 C29.677786 6.31692093 26.49492899 6.32204301 23.31194305 6.32357025 C21.79542986 6.32657826 20.27891743 6.33454347 18.7624588 6.34775543 C10.65078544 6.41337443 3.57147427 6.2014467 -4 3 C-2.68 2.01 -1.36 1.02 0 0 Z " fill="#E6CC4A" transform="translate(89,145)"/>
<path d="M0 0 C0 16.17 0 32.34 0 49 C-0.66 49 -1.32 49 -2 49 C-2.495 28.21 -2.495 28.21 -3 7 C-4.32 8.32 -5.64 9.64 -7 11 C-9.25 10.75 -9.25 10.75 -11 10 C-9.35718838 8.33035479 -7.71067239 6.6643536 -6.0625 5 C-5.14597656 4.071875 -4.22945312 3.14375 -3.28515625 2.1875 C-1 0 -1 0 0 0 Z " fill="#F5D94B" transform="translate(151,84)"/>
<path d="M0 0 C0.99 0 1.98 0 3 0 C3 13.86 3 27.72 3 42 C3.66 41.34 4.32 40.68 5 40 C5.99 40 6.98 40 8 40 C7.52794881 44.24846075 5.11122478 46.26819288 2 49 C1.34 49 0.68 49 0 49 C0 32.83 0 16.66 0 0 Z " fill="#1A1517" transform="translate(151,84)"/>
<path d="M0 0 C0.33 0.99 0.66 1.98 1 3 C-0.75 5.6875 -0.75 5.6875 -3 8 C-3.99 8 -4.98 8 -6 8 C-6 8.99 -6 9.98 -6 11 C-5.34 11.33 -4.68 11.66 -4 12 C-4.33 12.33 -4.66 12.66 -5 13 C-5.04063832 14.66617115 -5.042721 16.33388095 -5 18 C-5.99 18 -6.98 18 -8 18 C-8.5625 16.0625 -8.5625 16.0625 -9 14 C-8.67 13.67 -8.34 13.34 -8 13 C-9.32 12.34 -10.64 11.68 -12 11 C-11.46890625 10.54109375 -10.9378125 10.0821875 -10.390625 9.609375 C-6.81675301 6.50506283 -3.28145941 3.41818688 0 0 Z M-9 18 C-8.67 18.66 -8.34 19.32 -8 20 C-7.34 20 -6.68 20 -6 20 C-6 20.66 -6 21.32 -6 22 C-6.99 22 -7.98 22 -9 22 C-9 20.68 -9 19.36 -9 18 Z " fill="#FADB3A" transform="translate(163,122)"/>
<path d="M0 0 C0.33 0 0.66 0 1 0 C1 15.84 1 31.68 1 48 C0.67 48 0.34 48 0 48 C0 33.81 0 19.62 0 5 C-1.98 5.66 -3.96 6.32 -6 7 C-5.02433888 5.83040013 -4.044375 4.66438823 -3.0625 3.5 C-2.51722656 2.8503125 -1.97195312 2.200625 -1.41015625 1.53125 C-0.71212891 0.77328125 -0.71212891 0.77328125 0 0 Z " fill="#D5C472" transform="translate(150,84)"/>
<path d="M0 0 C0.33 1.32 0.66 2.64 1 4 C15.19 4.33 29.38 4.66 44 5 C44 5.33 44 5.66 44 6 C27.83 6 11.66 6 -5 6 C-3.35 4.02 -1.7 2.04 0 0 Z " fill="#13100D" transform="translate(96,67)"/>
<path d="M0 0 C0.99 0 1.98 0 3 0 C2.34 1.32 1.68 2.64 1 4 C0.34 4 -0.32 4 -1 4 C-1.268125 4.61875 -1.53625 5.2375 -1.8125 5.875 C-3 8 -3 8 -6 10 C-6.66 9.34 -7.32 8.68 -8 8 C-10.10820797 8.3185177 -10.10820797 8.3185177 -12 9 C-12 8.34 -12 7.68 -12 7 C-10.02 6.34 -8.04 5.68 -6 5 C-6.33 3.68 -6.66 2.36 -7 1 C-5.5459375 1.0309375 -5.5459375 1.0309375 -4.0625 1.0625 C-1.12534105 1.35618499 -1.12534105 1.35618499 0 0 Z " fill="#EACE40" transform="translate(125,85)"/>
<path d="M0 0 C0.99 0 1.98 0 3 0 C1.71480435 2.86697492 0.42870746 4.97607712 -2 7 C-2.66 7 -3.32 7 -4 7 C-4 9.64 -4 12.28 -4 15 C-4.99 15.33 -5.98 15.66 -7 16 C-6.21824485 11.15311808 -4.60155722 6.6233633 -3 2 C-2.01 2.33 -1.02 2.66 0 3 C0 2.01 0 1.02 0 0 Z " fill="#FDDA3C" transform="translate(113,97)"/>
<path d="M0 0 C0 0.66 0 1.32 0 2 C-1.2065625 2.4021875 -1.2065625 2.4021875 -2.4375 2.8125 C-3.283125 3.204375 -4.12875 3.59625 -5 4 C-5.33 4.99 -5.66 5.98 -6 7 C-8.0625 7.6875 -8.0625 7.6875 -10 8 C-10 8.99 -10 9.98 -10 11 C-10.99 11 -11.98 11 -13 11 C-11.56179187 5.96627156 -9.09754485 4.01044111 -5 1 C-2 0 -2 0 0 0 Z " fill="#ECCF4E" transform="translate(90,41)"/>
<path d="M0 0 C1.98 0 3.96 0 6 0 C5.65120368 3.25543229 4.97866739 4.01873107 2.4375 6.25 C1.633125 6.8275 0.82875 7.405 0 8 C0 5.36 0 2.72 0 0 Z " fill="#E2C840" transform="translate(131,75)"/>
<path d="M0 0 C0.33 0.99 0.66 1.98 1 3 C-1.42308573 6.7278242 -3.97699853 9.09436773 -8 11 C-8.66 10.67 -9.32 10.34 -10 10 C-6.7 6.7 -3.4 3.4 0 0 Z " fill="#EAD755" transform="translate(163,122)"/>
<path d="M0 0 C0.33 0.99 0.66 1.98 1 3 C0.071875 3.3403125 0.071875 3.3403125 -0.875 3.6875 C-3.61410209 5.37929835 -4.05024472 6.99244161 -5 10 C-6.32 9.67 -7.64 9.34 -9 9 C-7.87895467 7.68412059 -6.75303035 6.37239647 -5.625 5.0625 C-4.99851562 4.33160156 -4.37203125 3.60070312 -3.7265625 2.84765625 C-2 1 -2 1 0 0 Z " fill="#1D1A23" transform="translate(120,94)"/>
<path d="M0 0 C0.33 0.66 0.66 1.32 1 2 C-0.01953125 4.60546875 -0.01953125 4.60546875 -2 7 C-5.13671875 7.48828125 -5.13671875 7.48828125 -8.6875 7.3125 C-9.86699219 7.26738281 -11.04648438 7.22226563 -12.26171875 7.17578125 C-13.16535156 7.11777344 -14.06898437 7.05976562 -15 7 C-15 6.67 -15 6.34 -15 6 C-14.33613281 5.98582031 -13.67226562 5.97164063 -12.98828125 5.95703125 C-6.82744805 5.72950819 -6.82744805 5.72950819 -1.875 2.4375 C-0.946875 1.2309375 -0.946875 1.2309375 0 0 Z " fill="#CBB847" transform="translate(126,108)"/>
<path d="M0 0 C0.33 1.32 0.66 2.64 1 4 C-0.6875 6.3125 -0.6875 6.3125 -3 8 C-4.32 7.67 -5.64 7.34 -7 7 C-4.69 4.69 -2.38 2.38 0 0 Z " fill="#E1C749" transform="translate(139,95)"/>
<path d="M0 0 C1.65 0.33 3.3 0.66 5 1 C3.35 2.98 1.7 4.96 0 7 C-0.66 5.68 -1.32 4.36 -2 3 C-1.34 2.67 -0.68 2.34 0 2 C0 1.34 0 0.68 0 0 Z " fill="#E9D145" transform="translate(92,65)"/>
<path d="M0 0 C-0.33 0.99 -0.66 1.98 -1 3 C-1.66 3 -2.32 3 -3 3 C-3.45375 3.515625 -3.9075 4.03125 -4.375 4.5625 C-4.91125 5.036875 -5.4475 5.51125 -6 6 C-8.1875 5.6875 -8.1875 5.6875 -10 5 C-6.99385784 1.69324363 -4.54252119 0 0 0 Z " fill="#E9D046" transform="translate(150,89)"/>
<path d="M0 0 C0.66 0 1.32 0 2 0 C0.4169423 4.2742558 -2.50568404 6.26531794 -6 9 C-6.33 8.01 -6.66 7.02 -7 6 C-6.01 6 -5.02 6 -4 6 C-3.34 4.68 -2.68 3.36 -2 2 C-1.34 2 -0.68 2 0 2 C0 1.34 0 0.68 0 0 Z " fill="#1B1320" transform="translate(148,83)"/>
<path d="M0 0 C1.65 0 3.3 0 5 0 C4.814375 0.7425 4.62875 1.485 4.4375 2.25 C4.00796892 4.94990963 4.14877026 6.44631077 5 9 C1.7457985 6.16569547 0.4793247 4.31392226 0 0 Z " fill="#EDD44E" transform="translate(75,134)"/>
<path d="M0 0 C0.33 1.32 0.66 2.64 1 4 C0.01 4 -0.98 4 -2 4 C-2 5.32 -2 6.64 -2 8 C-3.32 7.67 -4.64 7.34 -6 7 C-4.02 4.69 -2.04 2.38 0 0 Z " fill="#1D1422" transform="translate(103,60)"/>
<path d="M0 0 C0.99 0 1.98 0 3 0 C1.60667426 3.36720387 0.0210714 4.9859524 -3 7 C-3 5.35 -3 3.7 -3 2 C-2.01 2.33 -1.02 2.66 0 3 C0 2.01 0 1.02 0 0 Z " fill="#CEBC4D" transform="translate(113,97)"/>
<path d="M0 0 C0.99 0.33 1.98 0.66 3 1 C3 1.66 3 2.32 3 3 C3.99 3.33 4.98 3.66 6 4 C5.01 4.99 4.02 5.98 3 7 C0 2.25 0 2.25 0 0 Z " fill="#E6CC33" transform="translate(118,86)"/>
</svg>
