
<!-- <?xml version="1.0" encoding="UTF-8"?> -->
<svg version="1.1" xmlns="http://www.w3.org/2000/svg" width="512" height="512" viewBox="150 0 120 550">
<path d="M0 0 C168.96 0 337.92 0 512 0 C512 168.96 512 337.92 512 512 C343.04 512 174.08 512 0 512 C0 343.04 0 174.08 0 0 Z " fill="#EE3345" transform="translate(0,0)"/>
<path d="M0 0 C1.33324452 -0.01059839 1.33324452 -0.01059839 2.69342327 -0.02141088 C4.15195579 -0.01778826 4.15195579 -0.01778826 5.63995361 -0.01409245 C6.67621037 -0.01932912 7.71246714 -0.0245658 8.78012562 -0.02996117 C12.26371375 -0.04500141 15.74715551 -0.04566722 19.23077393 -0.04633427 C21.72417958 -0.05395326 24.21758287 -0.06238031 26.71098328 -0.07155704 C33.49440438 -0.09353998 40.27776639 -0.10232837 47.06121445 -0.10738349 C51.30000015 -0.11064185 55.53877679 -0.11716536 59.77755737 -0.12438488 C71.52146614 -0.14395446 83.26536648 -0.16035537 95.0092926 -0.16326141 C96.13666506 -0.16354277 96.13666506 -0.16354277 97.28681272 -0.16382981 C98.8103768 -0.16419605 100.33394088 -0.16455975 101.85750496 -0.16492092 C102.61377454 -0.16510373 103.37004412 -0.16528654 104.14923096 -0.16547489 C104.90642799 -0.16565544 105.66362503 -0.16583599 106.44376743 -0.16602201 C118.69925283 -0.16955981 130.95456208 -0.19655582 143.20998645 -0.23397278 C155.80303863 -0.27211148 168.39600357 -0.29141932 180.98911476 -0.29172093 C188.05531085 -0.29230441 195.12129708 -0.30072515 202.18743896 -0.32971859 C208.83919075 -0.35688647 215.49060065 -0.35808998 222.14241219 -0.34206295 C224.57879606 -0.34025022 227.0152039 -0.34692313 229.45153618 -0.36288166 C257.49339792 -0.53530361 257.49339792 -0.53530361 268.87530518 10.37334347 C276.28509069 18.67711702 277.86206904 26.87247821 277.81959534 37.70429134 C277.82342088 38.74326122 277.82724643 39.7822311 277.8311879 40.85268492 C277.84149034 44.32715216 277.83753097 47.8014533 277.83355713 51.27593136 C277.83790504 53.76966155 277.84308846 56.2633904 277.8490448 58.75711727 C277.86104532 64.82285328 277.86358755 70.88852422 277.86124454 76.95426614 C277.85945991 81.88444961 277.86121411 86.81461965 277.86546898 91.74480152 C277.86606417 92.44706251 277.86665936 93.1493235 277.86727258 93.87286512 C277.86848435 95.299578 277.86969849 96.72629087 277.87091496 98.15300374 C277.88178389 111.52339668 277.87963073 124.89376437 277.87353011 138.26415872 C277.86835826 150.49436013 277.87962461 162.72448196 277.89862833 174.95466764 C277.91800049 187.51840363 277.92626404 200.08210196 277.92250508 212.64585298 C277.92059251 219.69722008 277.92308629 226.7485194 277.93721962 233.79987431 C277.95037014 240.42779208 277.94788196 247.05557657 277.93480873 253.68350315 C277.93243716 256.11756347 277.93519831 258.55163494 277.94343185 260.98568249 C277.95385131 264.30491411 277.94583691 267.62360485 277.93312073 270.94281673 C277.94049501 271.90886571 277.9478693 272.8749147 277.95546705 273.87023789 C277.88820758 282.19921647 275.41437418 286.76565774 269.5401001 292.71465206 C269.04211411 293.22271389 268.54412811 293.73077572 268.03105164 294.25423336 C266.3958248 295.917772 264.74968937 297.56994232 263.10186768 299.22099972 C261.95445623 300.37805894 260.8072683 301.53533985 259.66029358 302.69283199 C257.26063244 305.11040886 254.85489872 307.52175206 252.44537354 309.92949581 C249.35987283 313.01469079 246.2955737 316.12005841 243.23612499 319.23106098 C240.87602785 321.6245061 238.5024285 324.00419906 236.12481117 326.380229 C234.98888254 327.51969551 233.85781026 328.66402499 232.73177147 329.8132658 C231.15702547 331.4174125 229.56439077 333.00141995 227.96588135 334.58183956 C227.06447922 335.48751675 226.16307709 336.39319393 225.23435974 337.32631588 C222.0369945 339.63727977 220.42169532 339.83855221 216.55889893 339.26006222 C214.55889893 337.26006222 214.55889893 337.26006222 214.31050193 335.25476921 C214.31164109 334.00738792 214.31164109 334.00738792 214.31280327 332.73480701 C214.30882117 331.77637453 214.30483907 330.81794204 214.30073631 329.83046615 C214.30656199 328.770172 214.31238767 327.70987785 214.31838989 326.61745358 C214.31582662 324.93655028 214.31582662 324.93655028 214.31321156 323.22168934 C214.30989955 319.44128512 214.32094852 315.66105574 214.33184814 311.88066769 C214.33352353 309.18089847 214.33218463 306.48113274 214.33096313 303.78136349 C214.32991286 297.95586343 214.3362043 292.13040806 214.34743881 286.30491924 C214.3636716 277.88217804 214.36889954 269.45945851 214.3714148 261.03670336 C214.3757954 247.37237452 214.38911438 233.70806952 214.40802002 220.04375362 C214.42636939 206.76771317 214.4405305 193.49167919 214.44903564 180.21562862 C214.44956109 179.39771728 214.45008654 178.57980594 214.45062791 177.73710941 C214.45323792 173.63401519 214.45576535 169.53092093 214.45825171 165.42782664 C214.47899558 131.37188788 214.51423101 97.31597797 214.55889893 63.26006222 C213.97988268 63.26082166 213.40086643 63.2615811 212.80430424 63.26236355 C178.5172374 63.30708125 144.23017716 63.34141586 109.94308753 63.36219288 C105.82983581 63.36469441 101.71658415 63.36728304 97.60333252 63.3699255 C96.37497678 63.37071243 96.37497678 63.37071243 95.12180577 63.37151526 C81.84736892 63.38022727 68.57294933 63.39600161 55.29852273 63.41436781 C41.68638477 63.43304474 28.07425588 63.44417426 14.46210563 63.44823921 C6.05690952 63.45098886 -2.34823783 63.45968568 -10.75341894 63.47589515 C-16.51049179 63.48643482 -22.2675393 63.48966972 -28.02462111 63.48706497 C-31.35040907 63.48577894 -34.6760424 63.48888425 -38.00182724 63.49847317 C-41.60078513 63.50834548 -45.19953016 63.50605945 -48.79849243 63.50057125 C-49.85878658 63.50639693 -50.91908073 63.51222262 -52.01150501 63.51822484 C-52.96993749 63.51424274 -53.92836998 63.51026064 -54.91584587 63.50615788 C-55.74743339 63.50691732 -56.57902092 63.50767676 -57.43580806 63.50845921 C-59.44110107 63.26006222 -59.44110107 63.26006222 -61.44110107 61.26006222 C-62.03843374 57.35334362 -61.80910511 55.76431544 -59.45593262 52.53990841 C-58.52645813 51.61772518 -57.59698364 50.69554195 -56.63934326 49.74541378 C-56.12882919 49.23081097 -55.61831512 48.71620815 -55.09233093 48.18601131 C-53.40502098 46.49269664 -51.69723654 44.82181873 -49.98797607 43.15068722 C-48.80812103 41.97695017 -47.62944631 40.80202555 -46.4519043 39.62596798 C-43.98252303 37.1657861 -41.50365726 34.71574339 -39.01678467 32.27324581 C-35.83097141 29.14399689 -32.66276812 25.99765329 -29.50065231 22.84447765 C-27.06695973 20.41910407 -24.62765667 17.99944478 -22.18625641 15.58183193 C-21.01637332 14.42333395 -19.8474158 13.26390051 -18.67940521 12.10351467 C-17.04487324 10.48275238 -15.40378499 8.86894931 -13.76043701 7.25713253 C-12.36145172 5.87863125 -12.36145172 5.87863125 -10.9342041 4.47228146 C-7.36577418 1.30588631 -4.77798491 0.01215942 0 0 Z " fill="#191E3B" transform="translate(142.44110107421875,91.7399377822876)"/>
<path d="M0 0 C1.13119766 -0.00938095 2.26239532 -0.0187619 3.4278717 -0.02842712 C5.25299538 -0.01157616 5.25299538 -0.01157616 7.11499023 0.00561523 C8.36738998 0.00416 9.61978973 0.00270477 10.91014099 0.00120544 C13.55767706 0.00286561 16.20377663 0.01235491 18.85107422 0.03515625 C22.24309603 0.06357077 25.63421841 0.06079445 29.02630711 0.04806614 C32.26425954 0.0394386 35.50206601 0.05455272 38.73999023 0.06811523 C39.95876358 0.0651796 41.17753693 0.06224396 42.4332428 0.05921936 C43.5612883 0.07190353 44.6893338 0.08458771 45.8515625 0.09765625 C46.84543472 0.10305923 47.83930695 0.10846222 48.86329651 0.11402893 C51.36108398 0.50170898 51.36108398 0.50170898 53.18017578 1.68261719 C54.81550534 4.20170765 54.74885601 6.01641505 54.76513672 9.01123047 C54.77782089 10.13927597 54.79050507 11.26732147 54.80357361 12.42955017 C54.80063797 13.64832352 54.79770233 14.86709686 54.79467773 16.12280273 C54.79991959 17.37424576 54.80516144 18.62568878 54.81056213 19.91505432 C54.81699166 22.56413108 54.81706881 25.21234838 54.80712891 27.86132812 C54.79564348 31.25227458 54.81584079 34.64217901 54.84504604 38.03298855 C54.8678294 41.27126528 54.86094053 44.50946462 54.85717773 47.74780273 C54.86841171 48.96455185 54.87964569 50.18130096 54.89122009 51.43492126 C54.87714867 53.13171776 54.87714867 53.13171776 54.86279297 54.86279297 C54.8626268 55.85746078 54.86246063 56.8521286 54.86228943 57.87693787 C54.2085815 61.30035178 53.16132251 62.46196689 50.36108398 64.50170898 C47.82569885 65.01637268 47.82569885 65.01637268 44.9375 65.03515625 C43.85279922 65.05099258 42.76809845 65.06682892 41.65052795 65.08314514 C40.48380051 65.07818527 39.31707306 65.0732254 38.11499023 65.06811523 C36.91172592 65.07431381 35.70846161 65.08051239 34.46873474 65.0868988 C31.92431447 65.09400218 29.37984777 65.09081407 26.83544922 65.078125 C22.94143091 65.06427247 19.04982067 65.09831202 15.15600586 65.13647461 C12.68400006 65.1374259 10.21199126 65.13556645 7.73999023 65.13061523 C6.57528702 65.14387344 5.4105838 65.15713165 4.21058655 65.17079163 C-0.47664441 65.11679022 -3.72041494 65.00311295 -7.87329102 62.73608398 C-10.64382441 57.6608591 -10.33261999 52.81513413 -10.26782227 47.12280273 C-10.27023422 45.9185817 -10.27264618 44.71436066 -10.27513123 43.47364807 C-10.27415274 40.93096621 -10.26075902 38.38826306 -10.23583984 35.84570312 C-10.20150851 31.94970539 -10.21518926 28.05597232 -10.23461914 24.15991211 C-10.22772154 21.68919931 -10.21804994 19.21849238 -10.20532227 16.74780273 C-10.21028214 15.58107529 -10.215242 14.41434784 -10.22035217 13.21226501 C-10.20451584 12.12756424 -10.1886795 11.04286346 -10.17236328 9.92529297 C-10.1661647 8.97218735 -10.15996613 8.01908173 -10.15357971 7.03709412 C-8.98977019 1.30382522 -5.4143262 0.00090451 0 0 Z " fill="#1B1E3B" transform="translate(237.638916015625,329.498291015625)"/>
<path d="M0 0 C1.13119766 -0.00938095 2.26239532 -0.0187619 3.4278717 -0.02842712 C5.25299538 -0.01157616 5.25299538 -0.01157616 7.11499023 0.00561523 C8.36738998 0.00416 9.61978973 0.00270477 10.91014099 0.00120544 C13.55767706 0.00286561 16.20377663 0.01235491 18.85107422 0.03515625 C22.24309603 0.06357077 25.63421841 0.06079445 29.02630711 0.04806614 C32.26425954 0.0394386 35.50206601 0.05455272 38.73999023 0.06811523 C39.95876358 0.0651796 41.17753693 0.06224396 42.4332428 0.05921936 C43.5612883 0.07190353 44.6893338 0.08458771 45.8515625 0.09765625 C46.84543472 0.10305923 47.83930695 0.10846222 48.86329651 0.11402893 C51.36108398 0.50170898 51.36108398 0.50170898 53.18017578 1.68261719 C54.81550534 4.20170765 54.74885601 6.01641505 54.76513672 9.01123047 C54.77782089 10.13927597 54.79050507 11.26732147 54.80357361 12.42955017 C54.80063797 13.64832352 54.79770233 14.86709686 54.79467773 16.12280273 C54.79991959 17.37424576 54.80516144 18.62568878 54.81056213 19.91505432 C54.81699166 22.56413108 54.81706881 25.21234838 54.80712891 27.86132812 C54.79564348 31.25227458 54.81584079 34.64217901 54.84504604 38.03298855 C54.8678294 41.27126528 54.86094053 44.50946462 54.85717773 47.74780273 C54.86841171 48.96455185 54.87964569 50.18130096 54.89122009 51.43492126 C54.87714867 53.13171776 54.87714867 53.13171776 54.86279297 54.86279297 C54.8626268 55.85746078 54.86246063 56.8521286 54.86228943 57.87693787 C54.2085815 61.30035178 53.16132251 62.46196689 50.36108398 64.50170898 C47.82569885 65.01637268 47.82569885 65.01637268 44.9375 65.03515625 C43.85279922 65.05099258 42.76809845 65.06682892 41.65052795 65.08314514 C40.48380051 65.07818527 39.31707306 65.0732254 38.11499023 65.06811523 C36.91172592 65.07431381 35.70846161 65.08051239 34.46873474 65.0868988 C31.92431447 65.09400218 29.37984777 65.09081407 26.83544922 65.078125 C22.94143091 65.06427247 19.04982067 65.09831202 15.15600586 65.13647461 C12.68400006 65.1374259 10.21199126 65.13556645 7.73999023 65.13061523 C6.57528702 65.14387344 5.4105838 65.15713165 4.21058655 65.17079163 C-0.47664441 65.11679022 -3.72041494 65.00311295 -7.87329102 62.73608398 C-10.64382441 57.6608591 -10.33261999 52.81513413 -10.26782227 47.12280273 C-10.27023422 45.9185817 -10.27264618 44.71436066 -10.27513123 43.47364807 C-10.27415274 40.93096621 -10.26075902 38.38826306 -10.23583984 35.84570312 C-10.20150851 31.94970539 -10.21518926 28.05597232 -10.23461914 24.15991211 C-10.22772154 21.68919931 -10.21804994 19.21849238 -10.20532227 16.74780273 C-10.21028214 15.58107529 -10.215242 14.41434784 -10.22035217 13.21226501 C-10.20451584 12.12756424 -10.1886795 11.04286346 -10.17236328 9.92529297 C-10.1661647 8.97218735 -10.15996613 8.01908173 -10.15357971 7.03709412 C-8.98977019 1.30382522 -5.4143262 0.00090451 0 0 Z " fill="#FCD932" transform="translate(237.638916015625,219.498291015625)"/>
<path d="M0 0 C1.13119766 -0.00938095 2.26239532 -0.0187619 3.4278717 -0.02842712 C5.25299538 -0.01157616 5.25299538 -0.01157616 7.11499023 0.00561523 C8.36738998 0.00416 9.61978973 0.00270477 10.91014099 0.00120544 C13.55767706 0.00286561 16.20377663 0.01235491 18.85107422 0.03515625 C22.24309603 0.06357077 25.63421841 0.06079445 29.02630711 0.04806614 C32.26425954 0.0394386 35.50206601 0.05455272 38.73999023 0.06811523 C39.95876358 0.0651796 41.17753693 0.06224396 42.4332428 0.05921936 C43.5612883 0.07190353 44.6893338 0.08458771 45.8515625 0.09765625 C46.84543472 0.10305923 47.83930695 0.10846222 48.86329651 0.11402893 C51.36108398 0.50170898 51.36108398 0.50170898 53.17918396 1.68261719 C54.81448405 4.19954833 54.75565043 6.01806174 54.78100586 9.01123047 C54.80487366 10.70329872 54.80487366 10.70329872 54.82922363 12.42955017 C54.82942505 13.64832352 54.82962646 14.86709686 54.82983398 16.12280273 C54.84125427 17.99996727 54.84125427 17.99996727 54.85290527 19.91505432 C54.86372092 22.56413436 54.8679195 25.21232317 54.86206055 27.86132812 C54.85616506 31.2524513 54.88674559 34.64214239 54.92717743 38.03298855 C54.95927651 41.27123337 54.95493815 44.50942331 54.95483398 47.74780273 C54.97122925 48.96455185 54.98762451 50.18130096 55.0045166 51.43492126 C54.93728878 59.60735819 54.93728878 59.60735819 52.58178711 63.26342773 C47.51161524 65.21278429 42.62400056 65.09156311 37.23608398 65.06811523 C35.466604 65.0774131 35.466604 65.0774131 33.66137695 65.0868988 C31.17001165 65.09399527 28.6785989 65.09082609 26.18725586 65.078125 C22.37452018 65.06425785 18.5642375 65.09833948 14.75170898 65.13647461 C12.32983338 65.13742579 9.90795471 65.13556707 7.48608398 65.13061523 C6.3463916 65.14387344 5.20669922 65.15713165 4.0324707 65.17079163 C-0.59799727 65.1162792 -3.7586693 64.98459939 -7.85742188 62.73608398 C-10.65098939 57.66424865 -10.33269554 52.82177112 -10.26782227 47.12280273 C-10.27023422 45.9185817 -10.27264618 44.71436066 -10.27513123 43.47364807 C-10.27415274 40.93096621 -10.26075902 38.38826306 -10.23583984 35.84570312 C-10.20150851 31.94970539 -10.21518926 28.05597232 -10.23461914 24.15991211 C-10.22772154 21.68919931 -10.21804994 19.21849238 -10.20532227 16.74780273 C-10.21028214 15.58107529 -10.215242 14.41434784 -10.22035217 13.21226501 C-10.20451584 12.12756424 -10.1886795 11.04286346 -10.17236328 9.92529297 C-10.1661647 8.97218735 -10.15996613 8.01908173 -10.15357971 7.03709412 C-8.98977019 1.30382522 -5.4143262 0.00090451 0 0 Z " fill="#1A1E3B" transform="translate(127.638916015625,219.498291015625)"/>
</svg>
